<svg width="512" height="512" viewBox="0 0 512 512" xmlns="http://www.w3.org/2000/svg">
  <defs>
    <linearGradient id="bg" x1="0%" y1="0%" x2="100%" y2="100%">
      <stop offset="0%" style="stop-color:#4F46E5"/>
      <stop offset="100%" style="stop-color:#7C3AED"/>
    </linearGradient>
  </defs>
  
  <!-- Background -->
  <circle cx="256" cy="256" r="240" fill="url(#bg)"/>
  
  <!-- Main chat bubble -->
  <path d="M 120 180 Q 120 140 160 140 L 320 140 Q 360 140 360 180 L 360 260 Q 360 300 320 300 L 200 300 L 160 340 L 160 300 Q 120 300 120 260 Z" 
        fill="white" stroke="#1F2937" stroke-width="3"/>
  
  <!-- Secondary bubble -->
  <path d="M 180 220 Q 180 200 200 200 L 340 200 Q 380 200 380 220 L 380 280 Q 380 320 340 320 L 380 360 L 340 320 L 220 320 Q 180 320 180 280 Z" 
        fill="#F3F4F6" stroke="#1F2937" stroke-width="3"/>
  
  <!-- Dots -->
  <circle cx="200" cy="220" r="10" fill="#6B7280"/>
  <circle cx="240" cy="220" r="10" fill="#6B7280"/>
  <circle cx="280" cy="220" r="10" fill="#6B7280"/>
  
  <circle cx="220" cy="260" r="8" fill="#9CA3AF"/>
  <circle cx="250" cy="260" r="8" fill="#9CA3AF"/>
  <circle cx="280" cy="260" r="8" fill="#9CA3AF"/>
</svg>
